<?xml version="1.0" encoding="iso-8859-1"?>
<!-- Generator: Adobe Illustrator 19.0.0, SVG Export Plug-In . SVG Version: 6.00 Build 0)  -->
<svg version="1.1" id="Capa_1" xmlns="http://www.w3.org/2000/svg" xmlns:xlink="http://www.w3.org/1999/xlink" x="0px" y="0px"
	 viewBox="0 0 512 512" style="enable-background:new 0 0 512 512;" xml:space="preserve">
<path style="fill:#FFFFFF;" d="M501.333,32v320c-0.035,11.768-9.566,21.298-21.333,21.333H32
	c-11.767-0.035-21.298-9.566-21.333-21.333V32C10.702,20.233,20.233,10.702,32,10.667h448C491.768,10.702,501.298,20.233,501.333,32
	z M448,320V64H64v256H448z"/>
<path style="fill:#87D2F3;" d="M64,64h384v256H64V64z"/>
<path style="fill:#FFFFFF;" d="M362.667,458.667v32c0,5.891-4.776,10.667-10.667,10.667H160c-5.891,0-10.667-4.776-10.667-10.667
	v-32H362.667z"/>
<path style="fill:#87D2F3;" d="M181.333,373.333h149.333v85.333H181.333V373.333z"/>
<g>
	<path style="fill:#2170A6;" d="M480,0H32C14.327,0,0,14.327,0,32v320c0,17.673,14.327,32,32,32h138.667v64h-21.333
		c-5.891,0-10.667,4.776-10.667,10.667v32h-21.333V512h277.333v-21.333h-21.333v-32c0-5.891-4.776-10.667-10.667-10.667h-21.333v-64
		H480c17.673,0,32-14.327,32-32V32C512,14.327,497.673,0,480,0z M352,490.667H160v-21.333h192V490.667z M320,448H192v-64h128V448z
		 M490.667,352c0,5.891-4.776,10.667-10.667,10.667H32c-5.891,0-10.667-4.776-10.667-10.667V32c0-5.891,4.776-10.667,10.667-10.667
		h448c5.891,0,10.667,4.776,10.667,10.667V352z"/>
	<path style="fill:#2170A6;" d="M458.667,42.667H53.333c-5.891,0-10.667,4.776-10.667,10.667v53.333H64V64h384v42.667h21.333V53.333
		C469.333,47.442,464.558,42.667,458.667,42.667z"/>
	<path style="fill:#2170A6;" d="M448,320H64v-42.667H42.667v53.333c0,5.891,4.776,10.667,10.667,10.667h405.333
		c5.891,0,10.667-4.776,10.667-10.667v-53.333H448V320z"/>
	<path style="fill:#2170A6;" d="M160,170.667v-21.333c0.502-17.171-13.01-31.498-30.181-32c-0.606-0.018-1.213-0.018-1.819,0
		h-13.333c-1.229,0-2.449,0.213-3.605,0.629c-15.302,2.399-26.37,15.895-25.728,31.371v85.333c-0.502,17.171,13.01,31.498,30.181,32
		c0.606,0.018,1.213,0.018,1.819,0h13.333c1.229-0.001,2.449-0.213,3.605-0.629c15.302-2.399,26.37-15.895,25.728-31.371v-21.333
		h-21.333v21.333c0.527,5.365-3.395,10.14-8.76,10.667c-0.634,0.062-1.273,0.062-1.907,0h-10.667
		c-5.365,0.527-10.14-3.395-10.667-8.76c-0.062-0.634-0.062-1.273,0-1.907v-85.333c-0.527-5.365,3.395-10.14,8.76-10.667
		c0.634-0.062,1.273-0.062,1.907,0H128c5.365-0.527,10.14,3.395,10.667,8.76c0.062,0.634,0.062,1.273,0,1.907v21.333H160z"/>
	<path style="fill:#2170A6;" d="M224.885,266.667c17.177-0.018,31.097-13.938,31.115-31.115v-87.104
		c-0.018-17.177-13.938-31.097-31.115-31.115h-23.104c-17.177,0.018-31.097,13.938-31.115,31.115v87.104
		c0.018,17.177,13.938,31.097,31.115,31.115H224.885z M192,235.552v-87.104c0.006-5.4,4.382-9.775,9.781-9.781h23.104
		c5.4,0.006,9.775,4.382,9.781,9.781v87.104c-0.006,5.4-4.382,9.775-9.781,9.781h-23.104
		C196.382,245.327,192.006,240.952,192,235.552z"/>
	<path style="fill:#2170A6;" d="M320.885,266.667c17.177-0.018,31.097-13.938,31.115-31.115v-87.104
		c-0.018-17.177-13.938-31.097-31.115-31.115h-43.552c-5.891,0-10.667,4.776-10.667,10.667v128c0,5.891,4.776,10.667,10.667,10.667
		H320.885z M288,138.667h32.885c5.4,0.006,9.775,4.382,9.781,9.781v87.104c-0.006,5.4-4.382,9.775-9.781,9.781H288V138.667z"/>
	<path style="fill:#2170A6;" d="M426.667,138.667v-21.333h-53.333c-5.891,0-10.667,4.776-10.667,10.667v128
		c0,5.891,4.776,10.667,10.667,10.667h53.333v-21.333H384v-42.667h42.667v-21.333H384v-42.667H426.667z"/>
	<path style="fill:#2170A6;" d="M42.667,234.667H64V256H42.667V234.667z"/>
	<path style="fill:#2170A6;" d="M42.667,128H64v21.333H42.667V128z"/>
	<path style="fill:#2170A6;" d="M448,128h21.333v21.333H448V128z"/>
	<path style="fill:#2170A6;" d="M448,234.667h21.333V256H448V234.667z"/>
	<path style="fill:#2170A6;" d="M448,181.333h21.333v21.333H448V181.333z"/>
	<path style="fill:#2170A6;" d="M42.667,181.333H64v21.333H42.667V181.333z"/>
</g>
<g>
</g>
<g>
</g>
<g>
</g>
<g>
</g>
<g>
</g>
<g>
</g>
<g>
</g>
<g>
</g>
<g>
</g>
<g>
</g>
<g>
</g>
<g>
</g>
<g>
</g>
<g>
</g>
<g>
</g>
</svg>
