<svg xmlns="http://www.w3.org/2000/svg" width="1784" height="1449" viewBox="0 0 1784 1449">
  <g id="组_7" data-name="组 7" transform="translate(-82 -28)">
    <g id="reminder" transform="translate(82 28)">
      <path id="路径_1" data-name="路径 1" d="M407,512H105A105.119,105.119,0,0,1,0,407V105A105.119,105.119,0,0,1,105,0H407A105.119,105.119,0,0,1,512,105V407A105.119,105.119,0,0,1,407,512Z" fill="#f2f2f2"/>
      <path id="路径_2" data-name="路径 2" d="M407,0H256V512H407A105.119,105.119,0,0,0,512,407V105A105.119,105.119,0,0,0,407,0Z" fill="#e5e5e5"/>
      <path id="路径_3" data-name="路径 3" d="M95,301a45,45,0,1,1,45-45A45.051,45.051,0,0,1,95,301Zm0-60a15,15,0,1,0,15,15A15.017,15.017,0,0,0,95,241Z" fill="#00c3ff"/>
      <path id="路径_4" data-name="路径 4" d="M95,421a45,45,0,1,1,45-45A45.051,45.051,0,0,1,95,421Zm0-60a15,15,0,1,0,15,15A15.017,15.017,0,0,0,95,361Z" fill="#87e694"/>
      <path id="路径_5" data-name="路径 5" d="M95,181a45,45,0,1,1,45-45A45.051,45.051,0,0,1,95,181Zm0-60a15,15,0,1,0,15,15A15.017,15.017,0,0,0,95,121Z" fill="#ffab15"/>
      <g id="组_1" data-name="组 1">
        <rect id="矩形_1" data-name="矩形 1" width="342" height="30" transform="translate(170 301)" fill="#e5e5e5"/>
        <path id="路径_6" data-name="路径 6" d="M510.924,422H170v30H501.855A104.124,104.124,0,0,0,510.924,422Z" fill="#e5e5e5"/>
        <path id="路径_7" data-name="路径 7" d="M170,60V90H510.924a104.124,104.124,0,0,0-9.069-30Z" fill="#e5e5e5"/>
        <rect id="矩形_2" data-name="矩形 2" width="342" height="30" transform="translate(170 181)" fill="#e5e5e5"/>
      </g>
      <g id="组_2" data-name="组 2">
        <path id="路径_8" data-name="路径 8" d="M256,452H501.855a104.124,104.124,0,0,0,9.069-30H256Z" fill="#ccc"/>
        <path id="路径_9" data-name="路径 9" d="M256,90H510.924a104.124,104.124,0,0,0-9.069-30H256Z" fill="#ccc"/>
        <rect id="矩形_3" data-name="矩形 3" width="256" height="30" transform="translate(256 301)" fill="#ccc"/>
        <rect id="矩形_4" data-name="矩形 4" width="256" height="30" transform="translate(256 181)" fill="#ccc"/>
      </g>
    </g>
    <g id="video" transform="translate(1354 28)">
      <path id="路径_10" data-name="路径 10" d="M407,512H105A105.119,105.119,0,0,1,0,407V105A105.119,105.119,0,0,1,105,0H407A105.119,105.119,0,0,1,512,105V407A105.119,105.119,0,0,1,407,512Z" fill="#f2f2f2"/>
      <path id="路径_11" data-name="路径 11" d="M407,0H256V512H407A105.119,105.119,0,0,0,512,407V105A105.119,105.119,0,0,0,407,0Z" fill="#e5e5e5"/>
      <path id="路径_12" data-name="路径 12" d="M0,190V407A105.119,105.119,0,0,0,105,512H407A105.119,105.119,0,0,0,512,407V190Z" fill="#4dffe5"/>
      <path id="路径_13" data-name="路径 13" d="M256,190V512H407A105.119,105.119,0,0,0,512,407V190Z" fill="#39e5d0"/>
      <path id="路径_14" data-name="路径 14" d="M441.633,5.876,496.3,80H399.575l-59-80H266.3l59,80H231.574l-59-80H105c-2.2,0-4.38.076-6.546.21L157.3,80H62.576L28.238,33.44A104.606,104.606,0,0,0,0,105v85H3.576l59-80H157.3l-59,80h74.277l59-80H325.3l-59,80h74.276l59-80H496.3l-59,80h37.276L512,139.255V105A105.18,105.18,0,0,0,441.633,5.876Z" fill="#57565c"/>
      <path id="路径_15" data-name="路径 15" d="M441.633,5.876,496.3,80H399.575l-59-80H266.3l59,80H256v30h69.3l-59,80h74.276l59-80H496.3l-59,80h37.276L512,139.255V105A105.18,105.18,0,0,0,441.633,5.876Z" fill="#3e3d42"/>
    </g>
    <g id="notes" transform="translate(82 965)">
      <path id="路径_16" data-name="路径 16" d="M407,512H105A105.119,105.119,0,0,1,0,407V105A105.119,105.119,0,0,1,105,0H407A105.119,105.119,0,0,1,512,105V407A105.119,105.119,0,0,1,407,512Z" fill="#f2f2f2"/>
      <path id="路径_17" data-name="路径 17" d="M407,0H256V512H407A105.119,105.119,0,0,0,512,407V105A105.119,105.119,0,0,0,407,0Z" fill="#e5e5e5"/>
      <g id="组_3" data-name="组 3">
        <circle id="椭圆_1" data-name="椭圆 1" cx="15" cy="15" r="15" transform="translate(266 175)" fill="#ccc"/>
        <circle id="椭圆_2" data-name="椭圆 2" cx="15" cy="15" r="15" transform="translate(316 175)" fill="#ccc"/>
        <circle id="椭圆_3" data-name="椭圆 3" cx="15" cy="15" r="15" transform="translate(366 175)" fill="#ccc"/>
        <circle id="椭圆_4" data-name="椭圆 4" cx="15" cy="15" r="15" transform="translate(416 175)" fill="#ccc"/>
        <circle id="椭圆_5" data-name="椭圆 5" cx="15" cy="15" r="15" transform="translate(466 175)" fill="#ccc"/>
      </g>
      <g id="组_4" data-name="组 4">
        <circle id="椭圆_6" data-name="椭圆 6" cx="15" cy="15" r="15" transform="translate(216 175)" fill="#e5e5e5"/>
        <circle id="椭圆_7" data-name="椭圆 7" cx="15" cy="15" r="15" transform="translate(166 175)" fill="#e5e5e5"/>
        <circle id="椭圆_8" data-name="椭圆 8" cx="15" cy="15" r="15" transform="translate(116 175)" fill="#e5e5e5"/>
        <circle id="椭圆_9" data-name="椭圆 9" cx="15" cy="15" r="15" transform="translate(66 175)" fill="#e5e5e5"/>
        <circle id="椭圆_10" data-name="椭圆 10" cx="15" cy="15" r="15" transform="translate(16 175)" fill="#e5e5e5"/>
      </g>
      <path id="路径_18" data-name="路径 18" d="M512,105A105.119,105.119,0,0,0,407,0H105A105.119,105.119,0,0,0,0,105v40H512Z" fill="#ffdc40"/>
      <path id="路径_19" data-name="路径 19" d="M407,0H256V145H512V105A105.119,105.119,0,0,0,407,0Z" fill="#ffab15"/>
      <g id="组_5" data-name="组 5">
        <path id="路径_20" data-name="路径 20" d="M511.61,416H.39a104.172,104.172,0,0,0,7.125,30h496.97A104.172,104.172,0,0,0,511.61,416Z" fill="#e5e5e5"/>
        <rect id="矩形_5" data-name="矩形 5" width="512" height="30" transform="translate(0 296)" fill="#e5e5e5"/>
      </g>
      <g id="组_6" data-name="组 6">
        <path id="路径_21" data-name="路径 21" d="M256,446H504.485a104.2,104.2,0,0,0,7.125-30H256Z" fill="#ccc"/>
        <rect id="矩形_6" data-name="矩形 6" width="256" height="30" transform="translate(256 296)" fill="#ccc"/>
      </g>
    </g>
    <g id="files" transform="translate(1354 965)">
      <path id="路径_22" data-name="路径 22" d="M407,512H105A105.119,105.119,0,0,1,0,407V105A105.119,105.119,0,0,1,105,0H407A105.119,105.119,0,0,1,512,105V407A105.119,105.119,0,0,1,407,512Z" fill="#f2f2f2"/>
      <path id="路径_23" data-name="路径 23" d="M407,0H256V512H407A105.119,105.119,0,0,0,512,407V105A105.119,105.119,0,0,0,407,0Z" fill="#e5e5e5"/>
      <path id="路径_24" data-name="路径 24" d="M406,156H233.678A42.677,42.677,0,0,1,203.5,143.5,42.677,42.677,0,0,0,173.322,131H106a15,15,0,0,0-15,15V361a15,15,0,0,0,15,15H406a15,15,0,0,0,15-15V171A15,15,0,0,0,406,156Zm-15,60H121V186H391Z" fill="#00c3ff"/>
      <path id="路径_25" data-name="路径 25" d="M406,156H256v30H391v30H256V376H406a15,15,0,0,0,15-15V171A15,15,0,0,0,406,156Z" fill="#00aaf0"/>
    </g>
  </g>
</svg>
