<svg id="Layer_1" enable-background="new 0 0 64 64" height="512" viewBox="0 0 64 64" width="512" xmlns="http://www.w3.org/2000/svg"><path d="m8 21c0-1.105.895-2 2-2h44c1.105 0 2 .895 2 2v2 3 6 6 5c0 1.105-.895 2-2 2h-44c-1.105 0-2-.895-2-2v-5-6-6-3z" fill="#cadfdc"/><path d="m56 21v1c0-1.1-.9-2-2-2h-44c-1.1 0-2 .9-2 2v-1c0-1.1.9-2 2-2h44c1.1 0 2 .9 2 2z" fill="#e3eeec"/><g fill="#b5d0ca"><path d="m12 23.5h-2c-.276 0-.5-.224-.5-.5s.224-.5.5-.5h2c.276 0 .5.224.5.5s-.224.5-.5.5z"/><path d="m18 23.5h-2c-.276 0-.5-.224-.5-.5s.224-.5.5-.5h2c.276 0 .5.224.5.5s-.224.5-.5.5z"/><path d="m24 23.5h-2c-.276 0-.5-.224-.5-.5s.224-.5.5-.5h2c.276 0 .5.224.5.5s-.224.5-.5.5z"/><path d="m30 23.5h-2c-.276 0-.5-.224-.5-.5s.224-.5.5-.5h2c.276 0 .5.224.5.5s-.224.5-.5.5z"/><path d="m36 23.5h-2c-.276 0-.5-.224-.5-.5s.224-.5.5-.5h2c.276 0 .5.224.5.5s-.224.5-.5.5z"/><path d="m42 23.5h-2c-.276 0-.5-.224-.5-.5s.224-.5.5-.5h2c.276 0 .5.224.5.5s-.224.5-.5.5z"/><path d="m48 23.5h-2c-.276 0-.5-.224-.5-.5s.224-.5.5-.5h2c.276 0 .5.224.5.5s-.224.5-.5.5z"/><path d="m54 23.5h-2c-.276 0-.5-.224-.5-.5s.224-.5.5-.5h2c.276 0 .5.224.5.5s-.224.5-.5.5z"/><path d="m8 26h6v4h-6z"/></g><path d="m14 26h6v4h-6z" fill="#c4d9d5"/><path d="m20 26h6v4h-6z" fill="#b5d0ca"/><path d="m26 26h6v4h-6z" fill="#c4d9d5"/><path d="m32 26h6v4h-6z" fill="#b5d0ca"/><path d="m38 26h6v4h-6z" fill="#c4d9d5"/><path d="m44 26h6v4h-6z" fill="#b5d0ca"/><path d="m50 26h6v4h-6z" fill="#c4d9d5"/><path d="m50 30h6v4h-6z" fill="#b5d0ca"/><path d="m8 30h6v4h-6z" fill="#c4d9d5"/><path d="m14 30h6v4h-6z" fill="#b5d0ca"/><path d="m20 30h6v4h-6z" fill="#c4d9d5"/><path d="m26 30h6v4h-6z" fill="#b5d0ca"/><path d="m32 30h6v4h-6z" fill="#c4d9d5"/><path d="m38 30h6v4h-6z" fill="#b5d0ca"/><path d="m44 30h6v4h-6z" fill="#c4d9d5"/><path d="m8 34h6v4h-6z" fill="#b5d0ca"/><path d="m14 34h6v4h-6z" fill="#c4d9d5"/><path d="m20 34h6v4h-6z" fill="#b5d0ca"/><path d="m26 34h6v4h-6z" fill="#c4d9d5"/><path d="m32 34h6v4h-6z" fill="#b5d0ca"/><path d="m38 34h6v4h-6z" fill="#c4d9d5"/><path d="m44 34h6v4h-6z" fill="#b5d0ca"/><path d="m50 34h6v4h-6z" fill="#c4d9d5"/><path d="m50 38h6v4h-6z" fill="#b5d0ca"/><path d="m8 38h6v4h-6z" fill="#c4d9d5"/><path d="m14 38h6v4h-6z" fill="#b5d0ca"/><path d="m20 38h6v4h-6z" fill="#c4d9d5"/><path d="m32 38h-6v4h6 6v-4z" fill="#bad3ce"/><path d="m38 38h6v4h-6z" fill="#b5d0ca"/><path d="m44 38h6v4h-6z" fill="#c4d9d5"/><path d="m56 22.5c-.276 0-.5.224-.5.5v2.5h-5.5-6-6-6-6-6-6-5.5v-2.5c0-.276-.224-.5-.5-.5s-.5.224-.5.5v3 4 4 4 4 1c0 1.379 1.121 2.5 2.5 2.5h44c1.379 0 2.5-1.121 2.5-2.5v-1-4-4-4-4-3c0-.276-.224-.5-.5-.5zm-11.5 4h5v3h-5zm0 4h5v3h-5zm0 4h5v3h-5zm0 4h5v3h-5zm-6-12h5v3h-5zm0 4h5v3h-5zm0 4h5v3h-5zm0 4h5v3h-5zm-6-12h5v3h-5zm0 4h5v3h-5zm0 4h5v3h-5zm-6-8h5v3h-5zm0 4h5v3h-5zm0 4h5v3h-5zm0 4h5.5 5.5v3h-11zm-6-12h5v3h-5zm0 4h5v3h-5zm0 4h5v3h-5zm0 4h5v3h-5zm-6-12h5v3h-5zm0 4h5v3h-5zm0 4h5v3h-5zm0 4h5v3h-5zm-6-12h5v3h-5zm0 4h5v3h-5zm0 4h5v3h-5zm0 4h5v3h-5zm47 4.5c0 .827-.673 1.5-1.5 1.5h-44c-.827 0-1.5-.673-1.5-1.5v-.5h5.5 6 6 12 6 6 5.5zm0-1.5h-5v-3h5zm0-4h-5v-3h5zm0-4h-5v-3h5zm0-4h-5v-3h5z"/><path d="m54 18.5h-44c-1.379 0-2.5 1.121-2.5 2.5 0 .276.224.5.5.5s.5-.224.5-.5c0-.827.673-1.5 1.5-1.5h44c.827 0 1.5.673 1.5 1.5 0 .276.224.5.5.5s.5-.224.5-.5c0-1.379-1.121-2.5-2.5-2.5z"/><path d="m12 23.5c.276 0 .5-.224.5-.5s-.224-.5-.5-.5h-2c-.276 0-.5.224-.5.5s.224.5.5.5z"/><path d="m18 23.5c.276 0 .5-.224.5-.5s-.224-.5-.5-.5h-2c-.276 0-.5.224-.5.5s.224.5.5.5z"/><path d="m24 23.5c.276 0 .5-.224.5-.5s-.224-.5-.5-.5h-2c-.276 0-.5.224-.5.5s.224.5.5.5z"/><path d="m30 23.5c.276 0 .5-.224.5-.5s-.224-.5-.5-.5h-2c-.276 0-.5.224-.5.5s.224.5.5.5z"/><path d="m36 23.5c.276 0 .5-.224.5-.5s-.224-.5-.5-.5h-2c-.276 0-.5.224-.5.5s.224.5.5.5z"/><path d="m42 23.5c.276 0 .5-.224.5-.5s-.224-.5-.5-.5h-2c-.276 0-.5.224-.5.5s.224.5.5.5z"/><path d="m48 23.5c.276 0 .5-.224.5-.5s-.224-.5-.5-.5h-2c-.276 0-.5.224-.5.5s.224.5.5.5z"/><path d="m54 23.5c.276 0 .5-.224.5-.5s-.224-.5-.5-.5h-2c-.276 0-.5.224-.5.5s.224.5.5.5z"/></svg>