<svg xmlns="http://www.w3.org/2000/svg" width="1794" height="512" viewBox="0 0 1794 512">
  <g id="组_7" data-name="组 7" transform="translate(-59 -247)">
    <g id="hangUp" transform="translate(1341 247)">
      <g id="组_4" data-name="组 4" transform="translate(1 1)">
        <circle id="椭圆_2" data-name="椭圆 2" cx="247.467" cy="247.467" r="247.467" transform="translate(7.533 7.533)" fill="#607d8b"/>
        <ellipse id="椭圆_3" data-name="椭圆 3" cx="234.667" cy="247.467" rx="234.667" ry="247.467" transform="translate(7.533 7.533)" fill="#cfd8dc"/>
        <path id="路径_5" data-name="路径 5" d="M153.145,246.774A305.426,305.426,0,0,0,261.757,355.386l47.367-47.367a17.067,17.067,0,0,1,24.136,0l60.34,60.34a17.066,17.066,0,0,1,0,24.136l-42.2,42.2a50.853,50.853,0,0,1-51.854,12.572q-6.264-2.082-12.443-4.391A376.233,376.233,0,0,1,65.652,221.432q-2.307-6.177-4.391-12.443a50.855,50.855,0,0,1,12.572-51.854l42.2-42.2a17.066,17.066,0,0,1,24.136,0l60.34,60.34a17.066,17.066,0,0,1,0,24.136Z" fill="#f44335"/>
        <g id="组_2" data-name="组 2">
          <path id="路径_6" data-name="路径 6" d="M200.472,199.43l-30.123,30.123-84.48-84.48,25.856-25.856,4.352-4.267a17,17,0,0,1,24.064,0l60.331,60.331a16.946,16.946,0,0,1,0,24.149Z" fill="#c52828"/>
          <path id="路径_7" data-name="路径 7" d="M393.581,392.453l-30.123,30.208-84.48-84.48,25.856-25.856,4.267-4.267a16.947,16.947,0,0,1,24.15,0l60.331,60.33a17,17,0,0,1,0,24.065Z" fill="#c52828"/>
        </g>
        <g id="组_3" data-name="组 3">
          <path id="路径_8" data-name="路径 8" d="M167.789,199.43,154.05,213.254,85.869,145.073l25.856-25.856,56.064,56.064a16.8,16.8,0,0,1,0,24.149Z" fill="#f44335"/>
          <path id="路径_9" data-name="路径 9" d="M360.9,392.453l-13.824,13.824-68.1-68.1,25.856-25.856L360.9,368.389a16.845,16.845,0,0,1,0,24.064Z" fill="#f44335"/>
          <path id="路径_10" data-name="路径 10" d="M269.746,215.687l6.033-90.5,24.132,24.133L360.634,88.6l36.2,36.207-60.715,60.715,24.132,24.132Z" fill="#f44335"/>
        </g>
      </g>
      <g id="组_5" data-name="组 5">
        <path id="路径_11" data-name="路径 11" d="M340.292,304.45a25.643,25.643,0,0,0-36.2,0l-30.163,30.163-.012.009-.009.012L261.442,347.1a296.973,296.973,0,0,1-96.55-96.546l12.475-12.473.009-.006.006-.009,30.16-30.158a25.6,25.6,0,0,0,0-36.2l-60.333-60.346a25.646,25.646,0,0,0-36.208,0l-42.2,42.2a58.991,58.991,0,0,0-14.633,60.588c1.417,4.267,2.917,8.513,4.483,12.7A380.629,380.629,0,0,0,147.21,364.791a380.482,380.482,0,0,0,137.908,88.55q6.312,2.357,12.733,4.492a57.543,57.543,0,0,0,18.167,2.921A60.235,60.235,0,0,0,358.435,443.2l42.2-42.2a25.6,25.6,0,0,0,0-36.2ZM123.067,123.437a8.555,8.555,0,0,1,12.075,0l60.333,60.346a8.525,8.525,0,0,1,0,12.062L171.34,219.976,98.934,147.57ZM303.233,441.642q-6.113-2.037-12.175-4.3a363.6,363.6,0,0,1-131.784-84.616A363.77,363.77,0,0,1,74.65,220.921q-2.25-6.037-4.292-12.154a42.587,42.587,0,0,1,10.508-43.129l6-6,72.406,72.406-11.164,11.164a8.529,8.529,0,0,0-1.325,10.354A313.95,313.95,0,0,0,258.442,365.216a8.541,8.541,0,0,0,10.35-1.329l11.162-11.16,72.414,72.406-6,6A42.569,42.569,0,0,1,303.233,441.642Zm85.334-52.713-24.134,24.137-72.411-72.4,24.137-24.136a8.538,8.538,0,0,1,12.067,0l60.342,60.346a8.523,8.523,0,0,1,0,12.062Z"/>
        <path id="路径_12" data-name="路径 12" d="M256,0C114.615,0,0,114.615,0,256S114.615,512,256,512,512,397.385,512,256C511.84,114.682,397.319.16,256,0Zm0,494.933C124.041,494.933,17.067,387.959,17.067,256S124.041,17.067,256,17.067,494.933,124.041,494.933,256C494.785,387.9,387.9,494.785,256,494.933Z"/>
        <path id="路径_13" data-name="路径 13" d="M270.742,225.225c.192,0,.375-.009.567-.021l90.517-6.033a8.529,8.529,0,0,0,5.467-14.546l-18.108-18.1,54.683-54.683a8.529,8.529,0,0,0,0-12.066l-36.2-36.2a8.784,8.784,0,0,0-12.067,0l-54.683,54.683-18.108-18.1a8.535,8.535,0,0,0-14.55,5.467l-6.033,90.513a8.536,8.536,0,0,0,8.515,9.1Zm13.3-79.717,10.842,10.842a8.529,8.529,0,0,0,12.066,0l54.683-54.683L385.766,125.8l-54.683,54.683a8.529,8.529,0,0,0,0,12.066L341.925,203.4l-62.017,4.133Z"/>
      </g>
    </g>
    <g id="pickUp" transform="translate(59 247)">
      <circle id="椭圆_4" data-name="椭圆 4" cx="256" cy="256" r="256" fill="#bdc3c7"/>
      <path id="路径_14" data-name="路径 14" d="M368.2,430.963,355.752,443.41a52.645,52.645,0,0,1-53.672,12.977c-4.326-1.412-8.651-2.913-12.888-4.5A389.617,389.617,0,0,1,60.116,222.808c-1.589-4.237-3.09-8.563-4.5-12.888a52.643,52.643,0,0,1,12.977-53.672L81.038,143.8l87.393,87.393L150.6,249.026a320.828,320.828,0,0,0,48.993,63.382A320.858,320.858,0,0,0,262.974,361.4l17.832-17.832Z" fill="#46b29d"/>
      <g id="组_6" data-name="组 6">
        <path id="路径_15" data-name="路径 15" d="M199.592,200.033l-31.161,31.161L81.038,143.8l31.25-31.161a17.583,17.583,0,0,1,24.894,0l62.411,62.411a17.53,17.53,0,0,1,0,24.982Z" fill="#14a085"/>
        <path id="路径_16" data-name="路径 16" d="M399.36,399.713,368.2,430.963,280.806,343.57l31.161-31.161a17.529,17.529,0,0,1,24.982,0L399.36,374.82a17.582,17.582,0,0,1,0,24.893Z" fill="#14a085"/>
      </g>
      <path id="路径_17" data-name="路径 17" d="M271.254,215.331l6.241-93.625L302.46,146.67l62.817-62.808,37.446,37.456-62.808,62.808,24.964,24.964Z" fill="#e6e7e8"/>
    </g>
  </g>
</svg>
