<?xml version="1.0" encoding="iso-8859-1"?>
<!-- Generator: Adobe Illustrator 19.0.0, SVG Export Plug-In . SVG Version: 6.00 Build 0)  -->
<svg version="1.1" id="Capa_1" xmlns="http://www.w3.org/2000/svg" xmlns:xlink="http://www.w3.org/1999/xlink" x="0px" y="0px"
	 viewBox="0 0 512 512" style="enable-background:new 0 0 512 512;" xml:space="preserve">
<g>
	<circle style="fill:#BDC3C7;" cx="256" cy="256" r="256"/>
	<path style="fill:#46B29D;" d="M368.199,430.963l-12.447,12.447c-14.005,14.114-34.766,19.134-53.672,12.977
		c-4.326-1.412-8.651-2.913-12.888-4.502C183.202,412.396,99.604,328.798,60.116,222.808c-1.589-4.237-3.09-8.563-4.502-12.888
		c-6.157-18.906-1.138-39.667,12.977-53.672l12.447-12.447l87.393,87.393l-17.832,17.832c13.619,23.091,30.078,44.385,48.993,63.382
		c18.998,18.915,40.291,35.374,63.382,48.993l17.832-17.832L368.199,430.963z"/>
	<g>
		<path style="fill:#14A085;" d="M199.592,200.033l-31.161,31.161l-87.393-87.393l31.25-31.161
			c3.298-3.306,7.777-5.164,12.447-5.164s9.148,1.858,12.447,5.164l62.411,62.411c3.346,3.295,5.23,7.795,5.23,12.491
			S202.938,196.738,199.592,200.033z"/>
		<path style="fill:#14A085;" d="M399.36,399.713l-31.161,31.25l-87.393-87.393l31.161-31.161c3.295-3.346,7.795-5.231,12.491-5.231
			s9.196,1.884,12.491,5.231l62.411,62.411c3.306,3.298,5.164,7.777,5.164,12.447S402.666,396.415,399.36,399.713z"/>
	</g>
	<polygon style="fill:#E6E7E8;" points="271.254,215.331 277.495,121.706 302.46,146.67 365.277,83.862 402.723,121.318 
		339.915,184.126 364.879,209.09 	"/>
</g>
<g>
</g>
<g>
</g>
<g>
</g>
<g>
</g>
<g>
</g>
<g>
</g>
<g>
</g>
<g>
</g>
<g>
</g>
<g>
</g>
<g>
</g>
<g>
</g>
<g>
</g>
<g>
</g>
<g>
</g>
</svg>
